<svg width="9" height="58" viewBox="0 0 9 58" fill="none" xmlns="http://www.w3.org/2000/svg">
<path opacity="0.6" d="M7.59722 57.5469C8.35322 56.8629 8.86922 55.8189 8.86922 54.3909C8.86922 52.2309 7.70522 51.3669 6.45722 51.3669C4.75322 51.3669 4.34522 52.8909 3.99722 54.1989C3.74522 55.1949 3.51722 56.0589 2.79722 56.0589C2.12522 56.0589 1.66922 55.4469 1.66922 54.5589C1.66922 53.6949 1.95722 52.8549 2.60522 52.2429L1.71722 51.5469C0.997219 52.2549 0.601219 53.2269 0.601219 54.4629C0.601219 56.1309 1.56122 57.2949 2.88122 57.2949C4.51322 57.2949 4.88522 55.8069 5.22122 54.5229C5.48522 53.5029 5.72522 52.5909 6.56522 52.5909C7.14122 52.5909 7.80122 53.0469 7.80122 54.3429C7.80122 55.4589 7.27322 56.3229 6.67322 56.8629L7.59722 57.5469ZM8.72522 48.1145V46.9145H1.77722V44.4425H0.721219V50.5985H1.77722V48.1145H8.72522ZM8.72522 38.2765V36.9565L0.721219 40.1365V41.6365L8.72522 44.8165V43.4965L7.06922 42.8485V38.9245L8.72522 38.2765ZM1.76522 40.8925L6.00122 39.2725V42.5005L1.76522 40.8925ZM8.72522 30.3683V29.2043H0.721219V30.4043H6.72122L0.721219 34.7603V35.9963H8.72522V34.7963H2.58122L8.72522 30.3683ZM8.72522 27.4299V24.5739C8.72522 22.0779 7.04522 20.4219 4.72922 20.4219C2.42522 20.4219 0.721219 22.0779 0.721219 24.5739V27.4299H8.72522ZM7.66922 26.2299H1.77722V24.5739C1.77722 22.6899 3.08522 21.6579 4.72922 21.6579C6.34922 21.6579 7.66922 22.7259 7.66922 24.5739V26.2299ZM8.72522 18.9689V17.7689H0.721219V18.9689H8.72522ZM8.72522 10.3527V9.18865H0.721219V10.3887H6.72122L0.721219 14.7447V15.9807H8.72522V14.7807H2.58122L8.72522 10.3527ZM4.72922 7.75025C7.22522 7.75025 8.88122 5.89025 8.88122 3.59825C8.88122 2.24225 8.31722 1.13825 7.46522 0.370246H4.52522V4.13825H5.58122V1.57025H7.02122C7.38122 1.95425 7.81322 2.71025 7.81322 3.59825C7.81322 5.26625 6.51722 6.51425 4.72922 6.51425C2.92922 6.51425 1.65722 5.26625 1.65722 3.59825C1.65722 2.66225 2.12522 1.85825 2.73722 1.40225L2.17322 0.430246C1.27322 1.10225 0.589219 2.09825 0.589219 3.59825C0.589219 5.89025 2.23322 7.75025 4.72922 7.75025Z" fill="#CC6633"/>
</svg>
