<svg width="318" height="117" viewBox="0 0 318 117" fill="none" xmlns="http://www.w3.org/2000/svg">
<path d="M2 10C2 5.58172 5.58172 2 10 2H308C312.418 2 316 5.58172 316 10V107C316 111.418 312.418 115 308 115H9.99999C5.58172 115 2 111.418 2 107V10Z" stroke="#CC6633" stroke-width="4"/>
<path d="M0 10C0 4.47715 4.47715 0 10 0H308C313.523 0 318 4.47715 318 10V48H0V10Z" fill="#CC6633"/>
<path d="M56.966 30.216C59.864 30.216 61.43 28.542 62.204 26.994L59.54 25.734C59.144 26.688 58.118 27.48 56.966 27.48C55.004 27.48 53.618 25.968 53.618 24.006C53.618 22.044 55.004 20.532 56.966 20.532C58.118 20.532 59.144 21.324 59.54 22.278L62.204 21.018C61.412 19.434 59.864 17.796 56.966 17.796C53.276 17.796 50.468 20.298 50.468 24.006C50.468 27.696 53.276 30.216 56.966 30.216ZM78.6663 30L74.1303 17.994H70.2423L65.7243 30H69.2343L69.8283 28.272H74.5623L75.1563 30H78.6663ZM73.7163 25.572H70.6563L72.1863 21.054L73.7163 25.572ZM91.073 30V27.3H86.249V17.994H83.153V30H91.073ZM104.2 30V27.3H99.3764V17.994H96.2804V30H104.2ZM120.709 30V25.266H126.289V22.566H120.709V20.694H126.415V17.994H117.613V30H120.709ZM137.504 30.216C141.176 30.216 143.912 27.66 143.912 24.006C143.912 20.352 141.176 17.796 137.504 17.796C133.832 17.796 131.078 20.352 131.078 24.006C131.078 27.66 133.832 30.216 137.504 30.216ZM137.504 27.48C135.506 27.48 134.228 25.95 134.228 24.006C134.228 22.044 135.506 20.532 137.504 20.532C139.484 20.532 140.762 22.044 140.762 24.006C140.762 25.95 139.484 27.48 137.504 27.48ZM159.313 30L156.865 25.59C157.981 25.194 159.259 24.078 159.259 21.99C159.259 19.758 157.747 17.994 155.083 17.994H149.071V30H152.167V25.968H153.751L155.767 30H159.313ZM154.615 23.268H152.167V20.694H154.615C155.425 20.694 156.109 21.162 156.109 21.972C156.109 22.818 155.425 23.268 154.615 23.268ZM181.579 30V27.3H175.873V25.266H181.453V22.566H175.873V20.694H181.579V17.994H172.777V30H181.579ZM198.136 30V17.994H195.022V24.6L190.162 17.994H186.976V30H190.072V23.052L195.148 30H198.136ZM209.679 30V20.694H213.027V17.994H203.217V20.694H206.583V30H209.679ZM228.342 30L225.894 25.59C227.01 25.194 228.288 24.078 228.288 21.99C228.288 19.758 226.776 17.994 224.112 17.994H218.1V30H221.196V25.968H222.78L224.796 30H228.342ZM223.644 23.268H221.196V20.694H223.644C224.454 20.694 225.138 21.162 225.138 21.972C225.138 22.818 224.454 23.268 223.644 23.268ZM236.697 30V17.994H233.601V30H236.697ZM251.259 30V27.3H245.553V25.266H251.133V22.566H245.553V20.694H251.259V17.994H242.457V30H251.259ZM261.12 30.216C264.342 30.216 266.124 28.614 266.124 26.202C266.124 21.738 259.338 22.854 259.338 21.324C259.338 20.82 259.734 20.46 260.634 20.46C261.822 20.46 263.136 20.874 264.144 21.702L265.836 19.488C264.558 18.39 262.884 17.814 260.958 17.814C257.88 17.814 256.17 19.614 256.17 21.63C256.17 26.256 262.974 24.942 262.974 26.58C262.974 27.156 262.326 27.57 261.264 27.57C259.626 27.57 258.294 26.85 257.43 25.986L255.792 28.308C256.998 29.46 258.69 30.216 261.12 30.216Z" fill="#F5E9D3"/>
<path d="M58.678 88.4863H64.798V76.5863C64.798 73.1863 62.758 71.6563 59.732 71.6563C57.08 71.6563 54.938 73.1183 53.986 74.5463C53.238 72.5063 51.572 71.6563 49.26 71.6563C46.608 71.6563 44.534 73.0163 43.82 73.9343V72.0643H37.7V88.4863H43.82V78.3543C44.228 77.8783 44.976 77.0623 46.302 77.0623C47.696 77.0623 48.172 77.9123 48.172 78.8983V88.4863H54.292V78.3543C54.7 77.8783 55.448 77.0623 56.808 77.0623C58.168 77.0623 58.678 77.9123 58.678 78.8983V88.4863ZM77.6997 88.4863H83.8197V78.5583C83.8197 73.0843 79.8417 71.6563 75.7617 71.6563C73.2797 71.6563 70.2197 72.3703 68.0097 74.1383L70.0837 77.9123C71.3757 76.9263 73.1097 76.3143 74.6397 76.3143C76.6457 76.3143 77.6997 77.1983 77.6997 78.3543V80.2243C76.8157 79.1023 74.8777 78.4223 72.7357 78.4223C70.2877 78.4223 67.0917 79.4083 67.0917 83.4883C67.0917 87.2283 70.2877 88.8943 72.7357 88.8943C74.7757 88.8943 76.7817 88.0783 77.6997 86.9223V88.4863ZM77.6997 84.0323C77.2917 84.6103 76.2377 84.9163 75.2857 84.9163C74.2657 84.9163 73.1437 84.6103 73.1437 83.5903C73.1437 82.5703 74.2657 82.2303 75.2857 82.2303C76.2377 82.2303 77.2917 82.5363 77.6997 83.1143V84.0323ZM87.8859 89.4383L87.0359 94.8783C87.6139 95.0483 88.9739 95.1503 89.4159 95.1503C92.8839 95.0483 95.6039 94.3343 97.0659 90.5263L104.206 72.0643H97.7459L94.5839 81.4483L91.4559 72.0643H84.9959L91.4559 88.7583L91.3199 89.0983C91.1159 89.5403 90.3679 89.7443 89.1779 89.7443C88.7699 89.7443 88.2599 89.6423 87.8859 89.4383ZM120.085 88.4863H126.953V65.8083H121.037L112.367 74.3083L116.243 78.3543L120.085 74.5463V88.4863ZM129.415 77.1643C129.415 83.3183 132.713 88.8943 139.479 88.8943C146.245 88.8943 149.543 83.3183 149.543 77.1643C149.543 71.0103 146.245 65.4683 139.479 65.4683C132.713 65.4683 129.415 71.0103 129.415 77.1643ZM142.641 77.1643C142.641 81.0063 141.655 82.8423 139.479 82.8423C137.303 82.8423 136.317 81.0063 136.317 77.1643C136.317 73.3223 137.303 71.5203 139.479 71.5203C141.655 71.5203 142.641 73.3223 142.641 77.1643ZM159.838 82.8083H167.998V77.7083H159.838V82.8083ZM182.438 70.3643C184.342 70.3643 185.872 68.8343 185.872 66.9303C185.872 65.0263 184.342 63.4963 182.438 63.4963C180.534 63.4963 179.004 65.0263 179.004 66.9303C179.004 68.8343 180.534 70.3643 182.438 70.3643ZM185.498 72.0643H179.378V87.7723C179.378 89.3363 178.698 90.1523 177.576 90.1523C177.372 90.1523 177.1 90.1523 176.76 90.0843V95.0143C177.27 95.1163 177.882 95.1503 178.664 95.1503C183.424 95.1503 185.498 91.9883 185.498 87.7723V72.0643ZM199.991 88.4863H206.111V72.0643H199.991V82.1963C199.481 82.7743 198.767 83.4883 197.407 83.4883C195.911 83.4883 195.027 82.8423 195.027 81.1763V72.0643H188.907V83.7943C188.907 86.6163 190.539 88.8943 194.347 88.8943C197.237 88.8943 199.039 87.7043 199.991 86.6503V88.4863ZM220.644 88.4863H226.764V76.8243C226.764 73.9683 225.098 71.6563 221.29 71.6563C218.4 71.6563 216.598 72.8463 215.646 73.9343V72.0643H209.526V88.4863H215.646V78.3543C216.156 77.7763 216.87 77.0623 218.264 77.0623C219.726 77.0623 220.644 77.7083 220.644 79.4083V88.4863ZM238.539 88.4863H257.069V82.5023H249.011C255.097 78.9323 256.865 76.3823 256.865 73.2883C256.865 68.7323 253.023 65.4683 247.141 65.4683C243.979 65.4683 240.171 66.5223 237.553 69.3103L241.293 73.8663C243.027 72.4043 244.863 71.5203 247.141 71.5203C248.739 71.5203 249.895 72.2003 249.895 73.2883C249.895 74.9883 248.909 75.8383 238.539 83.1483V88.4863ZM259.084 85.6983C261.294 87.7043 264.524 88.8943 268.57 88.8943C274.928 88.8943 278.668 85.7323 278.668 80.7343C278.668 76.2123 275.234 73.3903 271.358 73.3903C269.454 73.3903 267.72 74.0703 266.292 75.1243V71.5203H277.104V65.8083H259.764V79.4423L264.49 80.5303C265.646 79.4423 266.972 78.9663 268.706 78.9663C270.814 78.9663 271.698 79.8503 271.698 81.0063C271.698 82.0943 270.78 83.1483 268.502 83.1483C266.53 83.1483 264.218 82.4683 262.654 81.1763L259.084 85.6983Z" fill="#CC6633"/>
</svg>
