<svg width="318" height="117" viewBox="0 0 318 117" fill="none" xmlns="http://www.w3.org/2000/svg">
<path d="M2 10C2 5.58172 5.58172 2 10 2H308C312.418 2 316 5.58172 316 10V107C316 111.418 312.418 115 308 115H9.99999C5.58172 115 2 111.418 2 107V10Z" stroke="#CC6633" stroke-width="4"/>
<path d="M0 10C0 4.47715 4.47715 0 10 0H308C313.523 0 318 4.47715 318 10V48H0V10Z" fill="#CC6633"/>
<path d="M56.966 30.216C59.864 30.216 61.43 28.542 62.204 26.994L59.54 25.734C59.144 26.688 58.118 27.48 56.966 27.48C55.004 27.48 53.618 25.968 53.618 24.006C53.618 22.044 55.004 20.532 56.966 20.532C58.118 20.532 59.144 21.324 59.54 22.278L62.204 21.018C61.412 19.434 59.864 17.796 56.966 17.796C53.276 17.796 50.468 20.298 50.468 24.006C50.468 27.696 53.276 30.216 56.966 30.216ZM78.6663 30L74.1303 17.994H70.2423L65.7243 30H69.2343L69.8283 28.272H74.5623L75.1563 30H78.6663ZM73.7163 25.572H70.6563L72.1863 21.054L73.7163 25.572ZM91.073 30V27.3H86.249V17.994H83.153V30H91.073ZM104.2 30V27.3H99.3764V17.994H96.2804V30H104.2ZM120.709 30V25.266H126.289V22.566H120.709V20.694H126.415V17.994H117.613V30H120.709ZM137.504 30.216C141.176 30.216 143.912 27.66 143.912 24.006C143.912 20.352 141.176 17.796 137.504 17.796C133.832 17.796 131.078 20.352 131.078 24.006C131.078 27.66 133.832 30.216 137.504 30.216ZM137.504 27.48C135.506 27.48 134.228 25.95 134.228 24.006C134.228 22.044 135.506 20.532 137.504 20.532C139.484 20.532 140.762 22.044 140.762 24.006C140.762 25.95 139.484 27.48 137.504 27.48ZM159.313 30L156.865 25.59C157.981 25.194 159.259 24.078 159.259 21.99C159.259 19.758 157.747 17.994 155.083 17.994H149.071V30H152.167V25.968H153.751L155.767 30H159.313ZM154.615 23.268H152.167V20.694H154.615C155.425 20.694 156.109 21.162 156.109 21.972C156.109 22.818 155.425 23.268 154.615 23.268ZM181.579 30V27.3H175.873V25.266H181.453V22.566H175.873V20.694H181.579V17.994H172.777V30H181.579ZM198.136 30V17.994H195.022V24.6L190.162 17.994H186.976V30H190.072V23.052L195.148 30H198.136ZM209.679 30V20.694H213.027V17.994H203.217V20.694H206.583V30H209.679ZM228.342 30L225.894 25.59C227.01 25.194 228.288 24.078 228.288 21.99C228.288 19.758 226.776 17.994 224.112 17.994H218.1V30H221.196V25.968H222.78L224.796 30H228.342ZM223.644 23.268H221.196V20.694H223.644C224.454 20.694 225.138 21.162 225.138 21.972C225.138 22.818 224.454 23.268 223.644 23.268ZM236.697 30V17.994H233.601V30H236.697ZM251.259 30V27.3H245.553V25.266H251.133V22.566H245.553V20.694H251.259V17.994H242.457V30H251.259ZM261.12 30.216C264.342 30.216 266.124 28.614 266.124 26.202C266.124 21.738 259.338 22.854 259.338 21.324C259.338 20.82 259.734 20.46 260.634 20.46C261.822 20.46 263.136 20.874 264.144 21.702L265.836 19.488C264.558 18.39 262.884 17.814 260.958 17.814C257.88 17.814 256.17 19.614 256.17 21.63C256.17 26.256 262.974 24.942 262.974 26.58C262.974 27.156 262.326 27.57 261.264 27.57C259.626 27.57 258.294 26.85 257.43 25.986L255.792 28.308C256.998 29.46 258.69 30.216 261.12 30.216Z" fill="#F5E9D3"/>
<path d="M74.678 88.4863H80.798V76.5863C80.798 73.1863 78.758 71.6563 75.732 71.6563C73.08 71.6563 70.938 73.1183 69.986 74.5463C69.238 72.5063 67.572 71.6563 65.26 71.6563C62.608 71.6563 60.534 73.0163 59.82 73.9343V72.0643H53.7V88.4863H59.82V78.3543C60.228 77.8783 60.976 77.0623 62.302 77.0623C63.696 77.0623 64.172 77.9123 64.172 78.8983V88.4863H70.292V78.3543C70.7 77.8783 71.448 77.0623 72.808 77.0623C74.168 77.0623 74.678 77.9123 74.678 78.8983V88.4863ZM93.6997 88.4863H99.8197V78.5583C99.8197 73.0843 95.8417 71.6563 91.7617 71.6563C89.2797 71.6563 86.2197 72.3703 84.0097 74.1383L86.0837 77.9123C87.3757 76.9263 89.1097 76.3143 90.6397 76.3143C92.6457 76.3143 93.6997 77.1983 93.6997 78.3543V80.2243C92.8157 79.1023 90.8777 78.4223 88.7357 78.4223C86.2877 78.4223 83.0917 79.4083 83.0917 83.4883C83.0917 87.2283 86.2877 88.8943 88.7357 88.8943C90.7757 88.8943 92.7817 88.0783 93.6997 86.9223V88.4863ZM93.6997 84.0323C93.2917 84.6103 92.2377 84.9163 91.2857 84.9163C90.2657 84.9163 89.1437 84.6103 89.1437 83.5903C89.1437 82.5703 90.2657 82.2303 91.2857 82.2303C92.2377 82.2303 93.2917 82.5363 93.6997 83.1143V84.0323ZM103.886 89.4383L103.036 94.8783C103.614 95.0483 104.974 95.1503 105.416 95.1503C108.884 95.0483 111.604 94.3343 113.066 90.5263L120.206 72.0643H113.746L110.584 81.4483L107.456 72.0643H100.996L107.456 88.7583L107.32 89.0983C107.116 89.5403 106.368 89.7443 105.178 89.7443C104.77 89.7443 104.26 89.6423 103.886 89.4383ZM136.085 88.4863H142.953V65.8083H137.037L128.367 74.3083L132.243 78.3543L136.085 74.5463V88.4863ZM145.415 77.1643C145.415 83.3183 148.713 88.8943 155.479 88.8943C162.245 88.8943 165.543 83.3183 165.543 77.1643C165.543 71.0103 162.245 65.4683 155.479 65.4683C148.713 65.4683 145.415 71.0103 145.415 77.1643ZM158.641 77.1643C158.641 81.0063 157.655 82.8423 155.479 82.8423C153.303 82.8423 152.317 81.0063 152.317 77.1643C152.317 73.3223 153.303 71.5203 155.479 71.5203C157.655 71.5203 158.641 73.3223 158.641 77.1643ZM175.838 82.8083H183.998V77.7083H175.838V82.8083ZM198.438 70.3643C200.342 70.3643 201.872 68.8343 201.872 66.9303C201.872 65.0263 200.342 63.4963 198.438 63.4963C196.534 63.4963 195.004 65.0263 195.004 66.9303C195.004 68.8343 196.534 70.3643 198.438 70.3643ZM201.498 72.0643H195.378V87.7723C195.378 89.3363 194.698 90.1523 193.576 90.1523C193.372 90.1523 193.1 90.1523 192.76 90.0843V95.0143C193.27 95.1163 193.882 95.1503 194.664 95.1503C199.424 95.1503 201.498 91.9883 201.498 87.7723V72.0643ZM215.991 88.4863H222.111V72.0643H215.991V82.1963C215.481 82.7743 214.767 83.4883 213.407 83.4883C211.911 83.4883 211.027 82.8423 211.027 81.1763V72.0643H204.907V83.7943C204.907 86.6163 206.539 88.8943 210.347 88.8943C213.237 88.8943 215.039 87.7043 215.991 86.6503V88.4863ZM225.526 88.4863H231.646V65.8083H225.526V88.4863ZM243.109 85.6983C245.319 87.7043 248.549 88.8943 252.595 88.8943C258.953 88.8943 262.693 85.7323 262.693 80.7343C262.693 76.2123 259.259 73.3903 255.383 73.3903C253.479 73.3903 251.745 74.0703 250.317 75.1243V71.5203H261.129V65.8083H243.789V79.4423L248.515 80.5303C249.671 79.4423 250.997 78.9663 252.731 78.9663C254.839 78.9663 255.723 79.8503 255.723 81.0063C255.723 82.0943 254.805 83.1483 252.527 83.1483C250.555 83.1483 248.243 82.4683 246.679 81.1763L243.109 85.6983Z" fill="#CC6633"/>
</svg>
