<svg width="20" height="21" viewBox="0 0 20 21" fill="none" xmlns="http://www.w3.org/2000/svg">
<path fill-rule="evenodd" clip-rule="evenodd" d="M5.5 2.66504C3.56828 2.66504 2 4.23332 2 6.16504V15.165C2 17.0968 3.56828 18.665 5.5 18.665H14.5C16.4317 18.665 18 17.0968 18 15.165V6.16504C18 4.23332 16.4317 2.66504 14.5 2.66504H5.5ZM0 6.16504C0 3.12875 2.46372 0.665039 5.5 0.665039H14.5C17.5363 0.665039 20 3.12875 20 6.16504V15.165C20 18.2013 17.5363 20.665 14.5 20.665H5.5C2.46372 20.665 0 18.2013 0 15.165V6.16504ZM10.4342 7.69842C10.1449 7.65391 9.85736 7.65391 9.56806 7.69842L9.56059 7.69957L9.56059 7.69954C7.91787 7.93958 6.787 9.46973 7.034 11.1015L7.03477 11.1066L7.03476 11.1066C7.27432 12.7462 8.79317 13.8734 10.4417 13.6325C12.0806 13.3931 13.2077 11.8751 12.9677 10.2271C12.772 8.92224 11.7434 7.89407 10.4385 7.69907L10.4342 7.69843L10.4342 7.69842ZM10.7362 5.72135C10.2473 5.64635 9.75659 5.64627 9.26768 5.72111C6.53231 6.12287 4.64476 8.6712 5.05615 11.3983C5.45792 14.1385 7.99923 16.0107 10.7308 15.6115C13.4724 15.2109 15.3457 12.6688 14.9465 9.93631L14.946 9.93311C14.6211 7.75855 12.9104 6.0472 10.7362 5.72135ZM15 6.66504C15.5523 6.66504 16 6.21732 16 5.66504C16 5.11275 15.5523 4.66504 15 4.66504C14.4477 4.66504 14 5.11275 14 5.66504C14 6.21732 14.4477 6.66504 15 6.66504Z" fill="#7A7E2E"/>
</svg>
