<?xml version="1.0" encoding="UTF-8" standalone="no"?>
<svg
   xmlns:dc="http://purl.org/dc/elements/1.1/"
   xmlns:cc="http://creativecommons.org/ns#"
   xmlns:rdf="http://www.w3.org/1999/02/22-rdf-syntax-ns#"
   xmlns:svg="http://www.w3.org/2000/svg"
   xmlns="http://www.w3.org/2000/svg"
   xmlns:sodipodi="http://sodipodi.sourceforge.net/DTD/sodipodi-0.dtd"
   xmlns:inkscape="http://www.inkscape.org/namespaces/inkscape"
   inkscape:version="1.0 (4035a4fb49, 2020-05-01)"
   sodipodi:docname="rotated_4.svg"
   id="svg4"
   version="1.1"
   fill="none"
   viewBox="0 0 35 223"
   height="223"
   width="35">
  <metadata
     id="metadata10">
    <rdf:RDF>
      <cc:Work
         rdf:about="">
        <dc:format>image/svg+xml</dc:format>
        <dc:type
           rdf:resource="http://purl.org/dc/dcmitype/StillImage" />
        <dc:title></dc:title>
      </cc:Work>
    </rdf:RDF>
  </metadata>
  <defs
     id="defs8" />
  <sodipodi:namedview
     inkscape:current-layer="svg4"
     inkscape:window-maximized="1"
     inkscape:window-y="-9"
     inkscape:window-x="-9"
     inkscape:cy="111.5"
     inkscape:cx="7.5"
     inkscape:zoom="2.6318324"
     showgrid="false"
     id="namedview6"
     inkscape:window-height="1001"
     inkscape:window-width="1920"
     inkscape:pageshadow="2"
     inkscape:pageopacity="0"
     guidetolerance="10"
     gridtolerance="10"
     objecttolerance="10"
     borderopacity="1"
     bordercolor="#666666"
     pagecolor="#ffffff" />
  <path
     id="path2"
     fill="#cc6633"
     d="m 28.608,222.106 c 3.186,0 5.652,-2.43 5.652,-5.706 0,-1.332 -0.414,-2.628 -1.134,-3.744 l -0.576,0.414 c 0.612,0.972 0.972,2.07 0.972,3.24 0,2.916 -2.142,5.04 -4.968,5.04 -3.348,0 -6.282,-2.934 -6.282,-6.318 0,-3.024 1.854,-4.914 4.662,-4.914 1.836,0 2.7,0.864 2.7,1.566 0,0.342 -0.216,0.576 -0.738,0.576 -0.108,0 -0.378,-0.018 -0.468,-0.036 l -4.14,-0.882 v 2.448 l 0.864,0.18 c -0.648,0.396 -1.098,1.17 -1.098,2.214 0,2.07 1.998,3.996 4.338,3.996 1.746,0 3.078,-1.044 3.078,-2.808 0,-0.882 -0.486,-1.836 -1.386,-2.466 l 0.126,-0.018 c 0.648,-0.162 1.26,-0.684 1.26,-1.818 0,-1.584 -1.422,-3.78 -4.536,-3.78 -2.934,0 -5.418,2.196 -5.418,5.67 0,3.744 3.276,7.146 7.092,7.146 z M 28.59,214.69 c 0.432,0.324 0.954,0.846 0.954,1.656 0,0.81 -0.54,1.314 -1.368,1.314 -1.116,0 -2.214,-0.846 -2.214,-2.106 0,-0.684 0.396,-1.08 0.72,-1.26 z M 33,203.958 v -3.096 h -4.068 v -2.916 c 0,-2.7 -1.782,-4.176 -3.942,-4.176 -2.178,0 -3.996001,1.476 -3.996001,4.176 v 6.012 z m -8.028,-7.038 c 0.81,0 1.332,0.612 1.332,1.44 v 2.502 h -2.7 v -2.502 c 0,-0.828 0.54,-1.44 1.368,-1.44 z M 33,181.795 v -3.366 l -12.006001,4.536 v 3.888 L 33,191.371 v -3.366 l -1.818,-0.612 v -4.986 z m -9.306,3.114 4.878,-1.692 v 3.366 z M 33,173.942 v -3.096 H 20.993999 v 3.096 z m 0,-17.028 v -2.988 H 20.993999 v 3.114 H 27.906 l -6.912001,4.86 v 3.186 H 33 v -3.096 h -7.254 z m 0,-11.434 v -3.096 h -9.306 v -3.348 h -2.700001 v 9.81 H 23.694 v -3.366 z m 0,-14.794 v -3.096 h -4.842 l -7.164001,-4.536 v 3.51 l 4.428001,2.574 -4.428001,2.61 v 3.492 L 28.158,130.686 Z M 27.006,119.9 c 3.654,0 6.21,-2.754 6.21,-6.426 0,-3.672 -2.556,-6.408 -6.21,-6.408 -3.654,0 -6.210001,2.736 -6.210001,6.408 0,3.672 2.556001,6.426 6.210001,6.426 z m 0,-9.684 c 1.944,0 3.474,1.278 3.474,3.258 0,1.998 -1.53,3.276 -3.474,3.276 -1.962,0 -3.474,-1.278 -3.474,-3.276 0,-1.98 1.512,-3.258 3.474,-3.258 z m 1.134,-8.309 c 2.952,0 5.076,-1.728 5.076,-5.5803 0,-3.852 -2.106,-5.562 -5.094,-5.562 h -7.128001 v 3.15 H 28.032 c 1.422,0 2.448,0.756 2.448,2.412 0,1.674 -1.026,2.43 -2.448,2.43 h -7.038001 v 3.1503 z M 33,78.3041 v -3.546 l -4.41,2.448 c -0.396,-1.116 -1.512,-2.394 -3.6,-2.394 -2.232,0 -3.996001,1.512 -3.996001,4.176 v 6.012 H 33 v -3.096 h -4.068 v -1.584 z m -8.046,-0.342 c 0.828,0 1.35,0.684 1.35,1.494 v 2.448 h -2.7 v -2.448 c 0,-0.81 0.522,-1.494 1.35,-1.494 z M 33,69.4997 v -7.02 c 0,-2.358 -1.512,-3.528 -3.258,-3.528 -1.512,0 -2.736,1.008 -2.934,2.286 -0.252,-1.134 -1.26,-2.052 -2.754,-2.052 -1.512,0 -3.060001,1.134 -3.060001,3.51 v 6.804 z m -7.362,-3.096 h -2.07 v -3.006 c 0,-0.63 0.432,-1.062 1.026,-1.062 0.594,0 1.044,0.432 1.044,1.062 z m 4.788,0 h -2.232 v -3.114 c 0,-0.756 0.522,-1.188 1.134,-1.188 0.648,0 1.098,0.45 1.098,1.188 z M 33,53.6653 v -7.92 h -2.7 v 4.824 h -9.306001 v 3.096 z m -4.86,-12.723 c 2.952,0 5.076,-1.728 5.076,-5.58 0,-3.852 -2.106,-5.562 -5.094,-5.562 h -7.128001 v 3.15 H 28.032 c 1.422,0 2.448,0.756 2.448,2.412 0,1.674 -1.026,2.43 -2.448,2.43 h -7.038001 v 3.15 z M 33,24.0356 v -8.802 h -2.61 v 5.706 h -2.16 v -5.58 h -2.628 v 5.58 h -1.998 v -5.706 h -2.610001 v 8.802 z M 31.308,10.7 c 1.152,-1.20598 1.908,-2.89798 1.908,-5.32798 0,-3.222 -1.602,-5.004005 -4.014,-5.004005 -2.718,0 -3.294,2.736005 -3.708,4.716005 -0.252,1.332 -0.468,2.07 -1.098,2.07 -0.522,0 -0.936,-0.396 -0.936,-1.422 0,-1.062 0.414,-2.376 1.242,-3.384 L 22.488,0.656015 C 21.39,1.93402 20.813999,3.60802 20.813999,5.53402 c 0,3.078 1.746001,4.78798 3.762001,4.78798 2.844,0 3.348,-2.77198 3.744,-4.75198 0.27,-1.278 0.54,-2.052 1.224,-2.052 0.576,0 1.026,0.648 1.026,1.71 0,1.638 -0.72,2.97 -1.584,3.834 z" />
  <path
     d="m 6.792883,222.70688 c 0.39053,0.391 1.02369,0.391 1.41422,0 l 6.36399,-6.364 c 0.3905,-0.39 0.3905,-1.024 0,-1.414 -0.3906,-0.391 -1.0237,-0.391 -1.4142,0 l -5.6569,5.657 -5.65685,-5.657 c -0.39053,-0.391 -1.02369,-0.391 -1.414218,0 -0.390524,0.39 -0.390524,1.024 0,1.414 z M 6.499993,-1.25e-4 V 221.99988 h 2 V -1.25e-4 Z"
     fill="#cc6633"
     id="path2-4" />
</svg>
