<?xml version="1.0" encoding="UTF-8" standalone="no"?>
<svg
   xmlns:dc="http://purl.org/dc/elements/1.1/"
   xmlns:cc="http://creativecommons.org/ns#"
   xmlns:rdf="http://www.w3.org/1999/02/22-rdf-syntax-ns#"
   xmlns:svg="http://www.w3.org/2000/svg"
   xmlns="http://www.w3.org/2000/svg"
   xmlns:sodipodi="http://sodipodi.sourceforge.net/DTD/sodipodi-0.dtd"
   xmlns:inkscape="http://www.inkscape.org/namespaces/inkscape"
   inkscape:version="1.0 (4035a4fb49, 2020-05-01)"
   sodipodi:docname="rotated_3.svg"
   id="svg4"
   version="1.1"
   fill="none"
   viewBox="0 0 35 223"
   height="223"
   width="35">
  <metadata
     id="metadata10">
    <rdf:RDF>
      <cc:Work
         rdf:about="">
        <dc:format>image/svg+xml</dc:format>
        <dc:type
           rdf:resource="http://purl.org/dc/dcmitype/StillImage" />
        <dc:title></dc:title>
      </cc:Work>
    </rdf:RDF>
  </metadata>
  <defs
     id="defs8" />
  <sodipodi:namedview
     inkscape:current-layer="svg4"
     inkscape:window-maximized="1"
     inkscape:window-y="-9"
     inkscape:window-x="-9"
     inkscape:cy="111.5"
     inkscape:cx="7.5"
     inkscape:zoom="2.6318324"
     showgrid="false"
     id="namedview6"
     inkscape:window-height="1001"
     inkscape:window-width="1920"
     inkscape:pageshadow="2"
     inkscape:pageopacity="0"
     guidetolerance="10"
     gridtolerance="10"
     objecttolerance="10"
     borderopacity="1"
     bordercolor="#666666"
     pagecolor="#ffffff" />
  <path
     d="m 6.792883,222.70688 c 0.39053,0.391 1.02369,0.391 1.41422,0 l 6.36399,-6.364 c 0.3905,-0.39 0.3905,-1.024 0,-1.414 -0.3906,-0.391 -1.0237,-0.391 -1.4142,0 l -5.6569,5.657 -5.65685,-5.657 c -0.39053,-0.391 -1.02369,-0.391 -1.414218,0 -0.390524,0.39 -0.390524,1.024 0,1.414 z M 6.499993,-1.25e-4 V 221.99988 h 2 V -1.25e-4 Z"
     fill="#cc6633"
     id="path2-4" />
  <path
     d="m 31.802,158.51149 c 1.152,-1.206 1.908,-2.898 1.908,-5.328 0,-3.222 -1.602,-5.004 -4.014,-5.004 -2.718,0 -3.294,2.736 -3.708,4.716 -0.252,1.332 -0.467999,2.07 -1.098,2.07 -0.522,0 -0.936,-0.396 -0.936,-1.422 0,-1.062 0.414,-2.376 1.242,-3.384 l -2.213999,-1.692 c -1.098001,1.278 -1.674002,2.952 -1.674002,4.878 0,3.078 1.746001,4.78801 3.762001,4.78801 2.844,0 3.348001,-2.772 3.744,-4.75201 0.270001,-1.27799 0.540001,-2.05199 1.224,-2.05199 0.576,0 1.026,0.648 1.026,1.71 0,1.638 -0.72,2.97 -1.584,3.834 z m -3.168,-15.38 c 2.952,0 5.076,-1.728 5.076,-5.58 0,-3.852 -2.106,-5.562 -5.094,-5.562 h -7.128001 v 3.15 H 28.526 c 1.422,0 2.448,0.756 2.448,2.412 0,1.674 -1.026,2.43 -2.448,2.43 h -7.038001 v 3.15 z m 4.86,-16.90599 v -7.02 c 0,-2.358 -1.512,-3.528 -3.258,-3.528 -1.511999,0 -2.736,1.00799 -2.934,2.286 -0.252,-1.134 -1.26,-2.05201 -2.754,-2.05201 -1.512,0 -3.060001,1.134 -3.060001,3.51001 v 6.804 z m -7.362,-3.096 h -2.07 v -3.006 c 0,-0.63 0.432,-1.062 1.026,-1.062 0.594,0 1.044,0.432 1.044,1.062 z m 4.788,0 h -2.232 v -3.11401 c 0,-0.756 0.522,-1.188 1.134001,-1.188 0.647999,0 1.097999,0.45 1.097999,1.188 z m 2.574,-23.2686 v -3.096 H 21.487999 v 4.30159 l 6.804001,2.52 -6.804001,2.502 v 4.302 H 33.494 v -3.096 h -8.1 l 8.1,-3.02399 v -1.368 l -8.1,-3.0416 z m 0,-8.8552 v -3.096 H 21.487999 v 3.096 z m -1.692,-7.9918 c 1.152,-1.206 1.908,-2.898 1.908,-5.328 0,-3.222 -1.602,-5.004 -4.014,-5.004 -2.718,0 -3.294,2.736 -3.708,4.716 -0.252,1.332 -0.467999,2.07 -1.098,2.07 -0.522,0 -0.936,-0.396 -0.936,-1.422 0,-1.062 0.414,-2.376 1.242,-3.384 l -2.213999,-1.692 c -1.098001,1.278 -1.674002,2.952 -1.674002,4.878 0,3.078 1.746001,4.788 3.762001,4.788 2.844,0 3.348001,-2.772 3.744,-4.752 0.270001,-1.278 0.540001,-2.052 1.224,-2.052 0.576,0 1.026,0.648 1.026,1.71 0,1.638 -0.72,2.97 -1.584,3.834 z m 0,-14.516 c 1.152,-1.206005 1.908,-2.898005 1.908,-5.328005 0,-3.222 -1.602,-5.004 -4.014,-5.004 -2.718,0 -3.294,2.736 -3.708,4.716 -0.252,1.332 -0.467999,2.07 -1.098,2.07 -0.522,0 -0.936,-0.396 -0.936,-1.422 0,-1.062 0.414,-2.376 1.242,-3.384 l -2.213999,-1.692 c -1.098001,1.278 -1.674002,2.952 -1.674002,4.878 0,3.078 1.746001,4.788005 3.762001,4.788005 2.844,0 3.348001,-2.772005 3.744,-4.752005 0.270001,-1.278 0.540001,-2.052 1.224,-2.052 0.576,0 1.026,0.648 1.026,1.71 0,1.638 -0.72,2.97 -1.584,3.834 z m 1.692,-15.380105 v -3.096 H 21.487999 v 3.096 z m -5.994,-8.2438 c 3.654,0 6.21,-2.754 6.21,-6.426 0,-3.672 -2.556,-6.408 -6.21,-6.408 -3.653999,0 -6.210001,2.736 -6.210001,6.408 0,3.672 2.556002,6.426 6.210001,6.426 z m 0,-9.684 c 1.944001,0 3.474,1.278 3.474,3.258 0,1.998 -1.529999,3.276 -3.474,3.276 -1.961999,0 -3.473999,-1.278 -3.473999,-3.276 0,-1.98 1.512,-3.258 3.473999,-3.258 z m 5.994,-16.4813 v -2.988 H 21.487999 v 3.114 H 28.4 l -6.912001,4.86 v 3.186 H 33.494 v -3.096 H 26.24 Z m -1.692,-7.8882 c 1.152,-1.20598 1.908,-2.89798 1.908,-5.32798 0,-3.222 -1.602,-5.004005 -4.014,-5.004005 -2.718,0 -3.294,2.736005 -3.708,4.716005 -0.252,1.332 -0.467999,2.07 -1.098,2.07 -0.522,0 -0.936,-0.396 -0.936,-1.422 0,-1.062 0.414,-2.376 1.242,-3.384 L 22.982001,0.77651 C 21.884,2.054515 21.307999,3.728515 21.307999,5.654515 c 0,3.078 1.746001,4.78798 3.762001,4.78798 2.844,0 3.348001,-2.77198 3.744,-4.75198 0.270001,-1.278 0.540001,-2.052 1.224,-2.052 0.576,0 1.026,0.648 1.026,1.71 0,1.638 -0.72,2.97 -1.584,3.834 z"
     fill="#cc6633"
     id="path2-2" />
</svg>
