<?xml version="1.0" encoding="UTF-8" standalone="no"?>
<svg
   xmlns:dc="http://purl.org/dc/elements/1.1/"
   xmlns:cc="http://creativecommons.org/ns#"
   xmlns:rdf="http://www.w3.org/1999/02/22-rdf-syntax-ns#"
   xmlns:svg="http://www.w3.org/2000/svg"
   xmlns="http://www.w3.org/2000/svg"
   xmlns:sodipodi="http://sodipodi.sourceforge.net/DTD/sodipodi-0.dtd"
   xmlns:inkscape="http://www.inkscape.org/namespaces/inkscape"
   inkscape:version="1.0 (4035a4fb49, 2020-05-01)"
   sodipodi:docname="rotated_1.svg"
   id="svg4"
   version="1.1"
   fill="none"
   viewBox="0 0 35 223"
   height="223"
   width="35">
  <metadata
     id="metadata10">
    <rdf:RDF>
      <cc:Work
         rdf:about="">
        <dc:format>image/svg+xml</dc:format>
        <dc:type
           rdf:resource="http://purl.org/dc/dcmitype/StillImage" />
        <dc:title></dc:title>
      </cc:Work>
    </rdf:RDF>
  </metadata>
  <defs
     id="defs8" />
  <sodipodi:namedview
     inkscape:current-layer="svg4"
     inkscape:window-maximized="1"
     inkscape:window-y="-9"
     inkscape:window-x="-9"
     inkscape:cy="111.5"
     inkscape:cx="7.5"
     inkscape:zoom="2.6318324"
     showgrid="false"
     id="namedview6"
     inkscape:window-height="1001"
     inkscape:window-width="1920"
     inkscape:pageshadow="2"
     inkscape:pageopacity="0"
     guidetolerance="10"
     gridtolerance="10"
     objecttolerance="10"
     borderopacity="1"
     bordercolor="#666666"
     pagecolor="#ffffff" />
  <path
     d="m 6.792883,222.70688 c 0.39053,0.391 1.02369,0.391 1.41422,0 l 6.36399,-6.364 c 0.3905,-0.39 0.3905,-1.024 0,-1.414 -0.3906,-0.391 -1.0237,-0.391 -1.4142,0 l -5.6569,5.657 -5.65685,-5.657 c -0.39053,-0.391 -1.02369,-0.391 -1.414218,0 -0.390524,0.39 -0.390524,1.024 0,1.414 z M 6.499993,-1.25e-4 V 221.99988 h 2 V -1.25e-4 Z"
     fill="#cc6633"
     id="path2-4" />
  <path
     d="m 33.451548,145.55462 v -7.92 h -2.7 v 4.824 h -9.306001 v 3.096 z m 0,-13.127 v -8.802 h -2.61 v 5.706 h -2.16 v -5.58 h -2.628 v 5.58 h -1.998 v -5.706 h -2.610001 v 8.802 z m 0,-22.498 v -3.366 l -12.006001,4.536 v 3.888 l 12.006001,4.518 v -3.366 l -1.818,-0.612 v -4.986 z m -9.306,3.114 4.878,-1.692 v 3.366 z m 9.306,-17.6625 v -3.546 l -4.41,2.448 c -0.396,-1.116 -1.512,-2.394 -3.6,-2.394 -2.232,0 -3.996001,1.512 -3.996001,4.176 v 6.0115 h 12.006001 v -3.0955 h -4.068 v -1.584 z m -8.046,-0.342 c 0.828,0 1.35,0.684 1.35,1.494 v 2.448 h -2.7 v -2.448 c 0,-0.81 0.522,-1.494 1.35,-1.494 z m 8.046,-16.6344 v -2.988 H 21.445547 v 3.114 h 6.912001 l -6.912001,4.86 v 3.186 h 12.006001 v -3.096 h -7.254 z m 0,-27.4877 v -3.096 H 21.445547 v 4.302 l 6.804001,2.52 -6.804001,2.502 v 4.302 h 12.006001 v -3.096 h -8.1 l 8.1,-3.024 v -1.368 l -8.1,-3.042 z m -5.994,-8.2432 c 3.654,0 6.21,-2.754 6.21,-6.426 0,-3.672 -2.556,-6.408002 -6.21,-6.408002 -3.654,0 -6.210001,2.736002 -6.210001,6.408002 0,3.672 2.556001,6.426 6.210001,6.426 z m 0,-9.684 c 1.944,0 3.474,1.278 3.474,3.258 0,1.998 -1.53,3.276 -3.474,3.276 -1.962,0 -3.474,-1.278 -3.474,-3.276 0,-1.98 1.512,-3.258 3.474,-3.258 z m 5.994,-15.005202 v -3.546 l -4.41,2.448 c -0.396,-1.116 -1.512,-2.394 -3.6,-2.394 -2.232,0 -3.996001,1.512 -3.996001,4.176 v 6.012 h 12.006001 v -3.096 h -4.068 v -1.584 z m -8.046,-0.342 c 0.828,0 1.35,0.684 1.35,1.494 v 2.448 h -2.7 v -2.448 c 0,-0.81 0.522,-1.494 1.35,-1.494 z m 8.046,-8.46239 V 0.378227 h -2.61 v 5.706001 h -2.16 V 0.504226 h -2.628 v 5.580002 h -1.998 V 0.378227 h -2.610001 v 8.802001 z"
     fill="#cc6633"
     id="path2" />
</svg>
