<svg width="19" height="17" viewBox="0 0 19 17" fill="none" xmlns="http://www.w3.org/2000/svg">
<path d="M18.5938 1.24441C18.7845 0.833631 18.3225 0.495312 17.9211 0.70508C17.3612 0.997673 16.7882 1.22486 16.1818 1.38664C14.7273 -0.302909 12.0909 -0.480756 10.4545 1.03094C9.45453 1.83126 8.99998 2.89834 8.99998 4.05434V4.94358C6.01775 5.02461 3.26197 3.77655 1.35174 1.60311C1.10006 1.31676 0.640866 1.374 0.525874 1.73747C-0.142007 3.84856 -1.24887 9.62739 5.36362 12.5021C4.06155 13.3512 2.63261 13.9107 1.1345 14.1525C0.612292 14.2367 0.454203 14.9826 0.950683 15.1651C8.67471 18.0044 17.0909 13.548 17.0909 4.1236V3.34296C17.7014 2.74579 18.2299 2.02832 18.5938 1.24441Z" fill="#7A7E2E"/>
</svg>
